<mxfile host="app.diagrams.net" modified="2021-09-06T21:30:57.546Z" agent="5.0 (Windows NT 10.0; Win64; x64) AppleWebKit/537.36 (KHTML, like Gecko) Chrome/93.0.4577.63 Safari/537.36" etag="Rc6OarXjlNeqfIbj5H6j" version="15.1.0" type="github">
  <diagram id="A0Ad9aKgMMxRvtOSXJwg" name="Page-1">
    <mxGraphModel dx="1360" dy="802" grid="1" gridSize="10" guides="1" tooltips="1" connect="1" arrows="1" fold="1" page="1" pageScale="1" pageWidth="827" pageHeight="1169" math="0" shadow="0">
      <root>
        <mxCell id="0" />
        <mxCell id="1" parent="0" />
        <mxCell id="8ySV3ovpZ6cW9YgAnO75-2" value="Dim_Airline" style="swimlane;fontStyle=0;childLayout=stackLayout;horizontal=1;startSize=26;horizontalStack=0;resizeParent=1;resizeParentMax=0;resizeLast=0;collapsible=1;marginBottom=0;" vertex="1" parent="1">
          <mxGeometry x="560" y="38" width="140" height="78" as="geometry" />
        </mxCell>
        <mxCell id="8ySV3ovpZ6cW9YgAnO75-3" value="IATA code" style="text;strokeColor=none;fillColor=none;align=left;verticalAlign=top;spacingLeft=4;spacingRight=4;overflow=hidden;rotatable=0;points=[[0,0.5],[1,0.5]];portConstraint=eastwest;" vertex="1" parent="8ySV3ovpZ6cW9YgAnO75-2">
          <mxGeometry y="26" width="140" height="26" as="geometry" />
        </mxCell>
        <mxCell id="8ySV3ovpZ6cW9YgAnO75-4" value="Airline" style="text;strokeColor=none;fillColor=none;align=left;verticalAlign=top;spacingLeft=4;spacingRight=4;overflow=hidden;rotatable=0;points=[[0,0.5],[1,0.5]];portConstraint=eastwest;" vertex="1" parent="8ySV3ovpZ6cW9YgAnO75-2">
          <mxGeometry y="52" width="140" height="26" as="geometry" />
        </mxCell>
        <mxCell id="8ySV3ovpZ6cW9YgAnO75-6" value="Dim_Airport" style="swimlane;fontStyle=0;childLayout=stackLayout;horizontal=1;startSize=26;horizontalStack=0;resizeParent=1;resizeParentMax=0;resizeLast=0;collapsible=1;marginBottom=0;" vertex="1" parent="1">
          <mxGeometry x="560" y="290" width="140" height="208" as="geometry" />
        </mxCell>
        <mxCell id="8ySV3ovpZ6cW9YgAnO75-7" value="IATA code" style="text;strokeColor=none;fillColor=none;align=left;verticalAlign=top;spacingLeft=4;spacingRight=4;overflow=hidden;rotatable=0;points=[[0,0.5],[1,0.5]];portConstraint=eastwest;" vertex="1" parent="8ySV3ovpZ6cW9YgAnO75-6">
          <mxGeometry y="26" width="140" height="26" as="geometry" />
        </mxCell>
        <mxCell id="8ySV3ovpZ6cW9YgAnO75-8" value="Airport" style="text;strokeColor=none;fillColor=none;align=left;verticalAlign=top;spacingLeft=4;spacingRight=4;overflow=hidden;rotatable=0;points=[[0,0.5],[1,0.5]];portConstraint=eastwest;" vertex="1" parent="8ySV3ovpZ6cW9YgAnO75-6">
          <mxGeometry y="52" width="140" height="26" as="geometry" />
        </mxCell>
        <mxCell id="8ySV3ovpZ6cW9YgAnO75-9" value="City" style="text;strokeColor=none;fillColor=none;align=left;verticalAlign=top;spacingLeft=4;spacingRight=4;overflow=hidden;rotatable=0;points=[[0,0.5],[1,0.5]];portConstraint=eastwest;" vertex="1" parent="8ySV3ovpZ6cW9YgAnO75-6">
          <mxGeometry y="78" width="140" height="26" as="geometry" />
        </mxCell>
        <mxCell id="8ySV3ovpZ6cW9YgAnO75-15" value="State" style="text;strokeColor=none;fillColor=none;align=left;verticalAlign=top;spacingLeft=4;spacingRight=4;overflow=hidden;rotatable=0;points=[[0,0.5],[1,0.5]];portConstraint=eastwest;" vertex="1" parent="8ySV3ovpZ6cW9YgAnO75-6">
          <mxGeometry y="104" width="140" height="26" as="geometry" />
        </mxCell>
        <mxCell id="8ySV3ovpZ6cW9YgAnO75-16" value="Country" style="text;strokeColor=none;fillColor=none;align=left;verticalAlign=top;spacingLeft=4;spacingRight=4;overflow=hidden;rotatable=0;points=[[0,0.5],[1,0.5]];portConstraint=eastwest;" vertex="1" parent="8ySV3ovpZ6cW9YgAnO75-6">
          <mxGeometry y="130" width="140" height="26" as="geometry" />
        </mxCell>
        <mxCell id="8ySV3ovpZ6cW9YgAnO75-17" value="Latitude" style="text;strokeColor=none;fillColor=none;align=left;verticalAlign=top;spacingLeft=4;spacingRight=4;overflow=hidden;rotatable=0;points=[[0,0.5],[1,0.5]];portConstraint=eastwest;" vertex="1" parent="8ySV3ovpZ6cW9YgAnO75-6">
          <mxGeometry y="156" width="140" height="26" as="geometry" />
        </mxCell>
        <mxCell id="8ySV3ovpZ6cW9YgAnO75-18" value="Longitude" style="text;strokeColor=none;fillColor=none;align=left;verticalAlign=top;spacingLeft=4;spacingRight=4;overflow=hidden;rotatable=0;points=[[0,0.5],[1,0.5]];portConstraint=eastwest;" vertex="1" parent="8ySV3ovpZ6cW9YgAnO75-6">
          <mxGeometry y="182" width="140" height="26" as="geometry" />
        </mxCell>
        <mxCell id="8ySV3ovpZ6cW9YgAnO75-20" value="Fact_Flight" style="swimlane;fontStyle=0;childLayout=stackLayout;horizontal=1;startSize=26;horizontalStack=0;resizeParent=1;resizeParentMax=0;resizeLast=0;collapsible=1;marginBottom=0;" vertex="1" parent="1">
          <mxGeometry x="320" y="90" width="140" height="650" as="geometry" />
        </mxCell>
        <mxCell id="8ySV3ovpZ6cW9YgAnO75-74" value="Year" style="text;strokeColor=none;fillColor=none;align=left;verticalAlign=top;spacingLeft=4;spacingRight=4;overflow=hidden;rotatable=0;points=[[0,0.5],[1,0.5]];portConstraint=eastwest;" vertex="1" parent="8ySV3ovpZ6cW9YgAnO75-20">
          <mxGeometry y="26" width="140" height="26" as="geometry" />
        </mxCell>
        <mxCell id="8ySV3ovpZ6cW9YgAnO75-73" value="Month" style="text;strokeColor=none;fillColor=none;align=left;verticalAlign=top;spacingLeft=4;spacingRight=4;overflow=hidden;rotatable=0;points=[[0,0.5],[1,0.5]];portConstraint=eastwest;" vertex="1" parent="8ySV3ovpZ6cW9YgAnO75-20">
          <mxGeometry y="52" width="140" height="26" as="geometry" />
        </mxCell>
        <mxCell id="8ySV3ovpZ6cW9YgAnO75-72" value="Day" style="text;strokeColor=none;fillColor=none;align=left;verticalAlign=top;spacingLeft=4;spacingRight=4;overflow=hidden;rotatable=0;points=[[0,0.5],[1,0.5]];portConstraint=eastwest;" vertex="1" parent="8ySV3ovpZ6cW9YgAnO75-20">
          <mxGeometry y="78" width="140" height="26" as="geometry" />
        </mxCell>
        <mxCell id="8ySV3ovpZ6cW9YgAnO75-71" value="Day of the week" style="text;strokeColor=none;fillColor=none;align=left;verticalAlign=top;spacingLeft=4;spacingRight=4;overflow=hidden;rotatable=0;points=[[0,0.5],[1,0.5]];portConstraint=eastwest;" vertex="1" parent="8ySV3ovpZ6cW9YgAnO75-20">
          <mxGeometry y="104" width="140" height="26" as="geometry" />
        </mxCell>
        <mxCell id="8ySV3ovpZ6cW9YgAnO75-27" value="Airline" style="text;strokeColor=none;fillColor=none;align=left;verticalAlign=top;spacingLeft=4;spacingRight=4;overflow=hidden;rotatable=0;points=[[0,0.5],[1,0.5]];portConstraint=eastwest;" vertex="1" parent="8ySV3ovpZ6cW9YgAnO75-20">
          <mxGeometry y="130" width="140" height="26" as="geometry" />
        </mxCell>
        <mxCell id="8ySV3ovpZ6cW9YgAnO75-28" value="Flight number" style="text;strokeColor=none;fillColor=none;align=left;verticalAlign=top;spacingLeft=4;spacingRight=4;overflow=hidden;rotatable=0;points=[[0,0.5],[1,0.5]];portConstraint=eastwest;" vertex="1" parent="8ySV3ovpZ6cW9YgAnO75-20">
          <mxGeometry y="156" width="140" height="26" as="geometry" />
        </mxCell>
        <mxCell id="8ySV3ovpZ6cW9YgAnO75-29" value="Tail number" style="text;strokeColor=none;fillColor=none;align=left;verticalAlign=top;spacingLeft=4;spacingRight=4;overflow=hidden;rotatable=0;points=[[0,0.5],[1,0.5]];portConstraint=eastwest;" vertex="1" parent="8ySV3ovpZ6cW9YgAnO75-20">
          <mxGeometry y="182" width="140" height="26" as="geometry" />
        </mxCell>
        <mxCell id="8ySV3ovpZ6cW9YgAnO75-30" value="Origin airport" style="text;strokeColor=none;fillColor=none;align=left;verticalAlign=top;spacingLeft=4;spacingRight=4;overflow=hidden;rotatable=0;points=[[0,0.5],[1,0.5]];portConstraint=eastwest;" vertex="1" parent="8ySV3ovpZ6cW9YgAnO75-20">
          <mxGeometry y="208" width="140" height="26" as="geometry" />
        </mxCell>
        <mxCell id="8ySV3ovpZ6cW9YgAnO75-31" value="Destination airport" style="text;strokeColor=none;fillColor=none;align=left;verticalAlign=top;spacingLeft=4;spacingRight=4;overflow=hidden;rotatable=0;points=[[0,0.5],[1,0.5]];portConstraint=eastwest;" vertex="1" parent="8ySV3ovpZ6cW9YgAnO75-20">
          <mxGeometry y="234" width="140" height="26" as="geometry" />
        </mxCell>
        <mxCell id="8ySV3ovpZ6cW9YgAnO75-32" value="Scheduled departure" style="text;strokeColor=none;fillColor=none;align=left;verticalAlign=top;spacingLeft=4;spacingRight=4;overflow=hidden;rotatable=0;points=[[0,0.5],[1,0.5]];portConstraint=eastwest;" vertex="1" parent="8ySV3ovpZ6cW9YgAnO75-20">
          <mxGeometry y="260" width="140" height="26" as="geometry" />
        </mxCell>
        <mxCell id="8ySV3ovpZ6cW9YgAnO75-35" value="Scheduled arrival" style="text;strokeColor=none;fillColor=none;align=left;verticalAlign=top;spacingLeft=4;spacingRight=4;overflow=hidden;rotatable=0;points=[[0,0.5],[1,0.5]];portConstraint=eastwest;" vertex="1" parent="8ySV3ovpZ6cW9YgAnO75-20">
          <mxGeometry y="286" width="140" height="26" as="geometry" />
        </mxCell>
        <mxCell id="8ySV3ovpZ6cW9YgAnO75-33" value="Departure time" style="text;strokeColor=none;fillColor=none;align=left;verticalAlign=top;spacingLeft=4;spacingRight=4;overflow=hidden;rotatable=0;points=[[0,0.5],[1,0.5]];portConstraint=eastwest;" vertex="1" parent="8ySV3ovpZ6cW9YgAnO75-20">
          <mxGeometry y="312" width="140" height="26" as="geometry" />
        </mxCell>
        <mxCell id="8ySV3ovpZ6cW9YgAnO75-36" value="Arrival time" style="text;strokeColor=none;fillColor=none;align=left;verticalAlign=top;spacingLeft=4;spacingRight=4;overflow=hidden;rotatable=0;points=[[0,0.5],[1,0.5]];portConstraint=eastwest;" vertex="1" parent="8ySV3ovpZ6cW9YgAnO75-20">
          <mxGeometry y="338" width="140" height="26" as="geometry" />
        </mxCell>
        <mxCell id="8ySV3ovpZ6cW9YgAnO75-34" value="Departure delay" style="text;strokeColor=none;fillColor=none;align=left;verticalAlign=top;spacingLeft=4;spacingRight=4;overflow=hidden;rotatable=0;points=[[0,0.5],[1,0.5]];portConstraint=eastwest;" vertex="1" parent="8ySV3ovpZ6cW9YgAnO75-20">
          <mxGeometry y="364" width="140" height="26" as="geometry" />
        </mxCell>
        <mxCell id="8ySV3ovpZ6cW9YgAnO75-37" value="Arrival delay" style="text;strokeColor=none;fillColor=none;align=left;verticalAlign=top;spacingLeft=4;spacingRight=4;overflow=hidden;rotatable=0;points=[[0,0.5],[1,0.5]];portConstraint=eastwest;" vertex="1" parent="8ySV3ovpZ6cW9YgAnO75-20">
          <mxGeometry y="390" width="140" height="26" as="geometry" />
        </mxCell>
        <mxCell id="8ySV3ovpZ6cW9YgAnO75-38" value="Diverted" style="text;strokeColor=none;fillColor=none;align=left;verticalAlign=top;spacingLeft=4;spacingRight=4;overflow=hidden;rotatable=0;points=[[0,0.5],[1,0.5]];portConstraint=eastwest;" vertex="1" parent="8ySV3ovpZ6cW9YgAnO75-20">
          <mxGeometry y="416" width="140" height="26" as="geometry" />
        </mxCell>
        <mxCell id="8ySV3ovpZ6cW9YgAnO75-39" value="Canceled" style="text;strokeColor=none;fillColor=none;align=left;verticalAlign=top;spacingLeft=4;spacingRight=4;overflow=hidden;rotatable=0;points=[[0,0.5],[1,0.5]];portConstraint=eastwest;" vertex="1" parent="8ySV3ovpZ6cW9YgAnO75-20">
          <mxGeometry y="442" width="140" height="26" as="geometry" />
        </mxCell>
        <mxCell id="8ySV3ovpZ6cW9YgAnO75-40" value="Cancelation reason" style="text;strokeColor=none;fillColor=none;align=left;verticalAlign=top;spacingLeft=4;spacingRight=4;overflow=hidden;rotatable=0;points=[[0,0.5],[1,0.5]];portConstraint=eastwest;" vertex="1" parent="8ySV3ovpZ6cW9YgAnO75-20">
          <mxGeometry y="468" width="140" height="26" as="geometry" />
        </mxCell>
        <mxCell id="8ySV3ovpZ6cW9YgAnO75-41" value="Air system delay" style="text;strokeColor=none;fillColor=none;align=left;verticalAlign=top;spacingLeft=4;spacingRight=4;overflow=hidden;rotatable=0;points=[[0,0.5],[1,0.5]];portConstraint=eastwest;" vertex="1" parent="8ySV3ovpZ6cW9YgAnO75-20">
          <mxGeometry y="494" width="140" height="26" as="geometry" />
        </mxCell>
        <mxCell id="8ySV3ovpZ6cW9YgAnO75-42" value="Security delay" style="text;strokeColor=none;fillColor=none;align=left;verticalAlign=top;spacingLeft=4;spacingRight=4;overflow=hidden;rotatable=0;points=[[0,0.5],[1,0.5]];portConstraint=eastwest;" vertex="1" parent="8ySV3ovpZ6cW9YgAnO75-20">
          <mxGeometry y="520" width="140" height="26" as="geometry" />
        </mxCell>
        <mxCell id="8ySV3ovpZ6cW9YgAnO75-43" value="Security delay" style="text;strokeColor=none;fillColor=none;align=left;verticalAlign=top;spacingLeft=4;spacingRight=4;overflow=hidden;rotatable=0;points=[[0,0.5],[1,0.5]];portConstraint=eastwest;" vertex="1" parent="8ySV3ovpZ6cW9YgAnO75-20">
          <mxGeometry y="546" width="140" height="26" as="geometry" />
        </mxCell>
        <mxCell id="8ySV3ovpZ6cW9YgAnO75-44" value="Airline delay" style="text;strokeColor=none;fillColor=none;align=left;verticalAlign=top;spacingLeft=4;spacingRight=4;overflow=hidden;rotatable=0;points=[[0,0.5],[1,0.5]];portConstraint=eastwest;" vertex="1" parent="8ySV3ovpZ6cW9YgAnO75-20">
          <mxGeometry y="572" width="140" height="26" as="geometry" />
        </mxCell>
        <mxCell id="8ySV3ovpZ6cW9YgAnO75-45" value="Late aircraft delay" style="text;strokeColor=none;fillColor=none;align=left;verticalAlign=top;spacingLeft=4;spacingRight=4;overflow=hidden;rotatable=0;points=[[0,0.5],[1,0.5]];portConstraint=eastwest;" vertex="1" parent="8ySV3ovpZ6cW9YgAnO75-20">
          <mxGeometry y="598" width="140" height="26" as="geometry" />
        </mxCell>
        <mxCell id="8ySV3ovpZ6cW9YgAnO75-46" value="Weather delay" style="text;strokeColor=none;fillColor=none;align=left;verticalAlign=top;spacingLeft=4;spacingRight=4;overflow=hidden;rotatable=0;points=[[0,0.5],[1,0.5]];portConstraint=eastwest;" vertex="1" parent="8ySV3ovpZ6cW9YgAnO75-20">
          <mxGeometry y="624" width="140" height="26" as="geometry" />
        </mxCell>
        <mxCell id="8ySV3ovpZ6cW9YgAnO75-47" value="Dim_Date" style="swimlane;fontStyle=0;childLayout=stackLayout;horizontal=1;startSize=26;horizontalStack=0;resizeParent=1;resizeParentMax=0;resizeLast=0;collapsible=1;marginBottom=0;" vertex="1" parent="1">
          <mxGeometry x="80" y="70" width="140" height="130" as="geometry" />
        </mxCell>
        <mxCell id="8ySV3ovpZ6cW9YgAnO75-21" value="Year" style="text;strokeColor=none;fillColor=none;align=left;verticalAlign=top;spacingLeft=4;spacingRight=4;overflow=hidden;rotatable=0;points=[[0,0.5],[1,0.5]];portConstraint=eastwest;" vertex="1" parent="8ySV3ovpZ6cW9YgAnO75-47">
          <mxGeometry y="26" width="140" height="26" as="geometry" />
        </mxCell>
        <mxCell id="8ySV3ovpZ6cW9YgAnO75-22" value="Month" style="text;strokeColor=none;fillColor=none;align=left;verticalAlign=top;spacingLeft=4;spacingRight=4;overflow=hidden;rotatable=0;points=[[0,0.5],[1,0.5]];portConstraint=eastwest;" vertex="1" parent="8ySV3ovpZ6cW9YgAnO75-47">
          <mxGeometry y="52" width="140" height="26" as="geometry" />
        </mxCell>
        <mxCell id="8ySV3ovpZ6cW9YgAnO75-23" value="Day" style="text;strokeColor=none;fillColor=none;align=left;verticalAlign=top;spacingLeft=4;spacingRight=4;overflow=hidden;rotatable=0;points=[[0,0.5],[1,0.5]];portConstraint=eastwest;" vertex="1" parent="8ySV3ovpZ6cW9YgAnO75-47">
          <mxGeometry y="78" width="140" height="26" as="geometry" />
        </mxCell>
        <mxCell id="8ySV3ovpZ6cW9YgAnO75-26" value="Day of the week" style="text;strokeColor=none;fillColor=none;align=left;verticalAlign=top;spacingLeft=4;spacingRight=4;overflow=hidden;rotatable=0;points=[[0,0.5],[1,0.5]];portConstraint=eastwest;" vertex="1" parent="8ySV3ovpZ6cW9YgAnO75-47">
          <mxGeometry y="104" width="140" height="26" as="geometry" />
        </mxCell>
        <mxCell id="8ySV3ovpZ6cW9YgAnO75-51" value="Dim_Aircraft" style="swimlane;fontStyle=0;childLayout=stackLayout;horizontal=1;startSize=26;horizontalStack=0;resizeParent=1;resizeParentMax=0;resizeLast=0;collapsible=1;marginBottom=0;" vertex="1" parent="1">
          <mxGeometry x="600" y="140" width="140" height="78" as="geometry" />
        </mxCell>
        <mxCell id="8ySV3ovpZ6cW9YgAnO75-52" value="Airline" style="text;strokeColor=none;fillColor=none;align=left;verticalAlign=top;spacingLeft=4;spacingRight=4;overflow=hidden;rotatable=0;points=[[0,0.5],[1,0.5]];portConstraint=eastwest;" vertex="1" parent="8ySV3ovpZ6cW9YgAnO75-51">
          <mxGeometry y="26" width="140" height="26" as="geometry" />
        </mxCell>
        <mxCell id="8ySV3ovpZ6cW9YgAnO75-53" value="Tail number" style="text;strokeColor=none;fillColor=none;align=left;verticalAlign=top;spacingLeft=4;spacingRight=4;overflow=hidden;rotatable=0;points=[[0,0.5],[1,0.5]];portConstraint=eastwest;" vertex="1" parent="8ySV3ovpZ6cW9YgAnO75-51">
          <mxGeometry y="52" width="140" height="26" as="geometry" />
        </mxCell>
        <mxCell id="8ySV3ovpZ6cW9YgAnO75-55" value="Dim_Schedule" style="swimlane;fontStyle=0;childLayout=stackLayout;horizontal=1;startSize=26;horizontalStack=0;resizeParent=1;resizeParentMax=0;resizeLast=0;collapsible=1;marginBottom=0;" vertex="1" parent="1">
          <mxGeometry x="80" y="250" width="140" height="156" as="geometry" />
        </mxCell>
        <mxCell id="8ySV3ovpZ6cW9YgAnO75-56" value="Flight number" style="text;strokeColor=none;fillColor=none;align=left;verticalAlign=top;spacingLeft=4;spacingRight=4;overflow=hidden;rotatable=0;points=[[0,0.5],[1,0.5]];portConstraint=eastwest;" vertex="1" parent="8ySV3ovpZ6cW9YgAnO75-55">
          <mxGeometry y="26" width="140" height="26" as="geometry" />
        </mxCell>
        <mxCell id="8ySV3ovpZ6cW9YgAnO75-57" value="Origin airport" style="text;strokeColor=none;fillColor=none;align=left;verticalAlign=top;spacingLeft=4;spacingRight=4;overflow=hidden;rotatable=0;points=[[0,0.5],[1,0.5]];portConstraint=eastwest;" vertex="1" parent="8ySV3ovpZ6cW9YgAnO75-55">
          <mxGeometry y="52" width="140" height="26" as="geometry" />
        </mxCell>
        <mxCell id="8ySV3ovpZ6cW9YgAnO75-58" value="Destination airport" style="text;strokeColor=none;fillColor=none;align=left;verticalAlign=top;spacingLeft=4;spacingRight=4;overflow=hidden;rotatable=0;points=[[0,0.5],[1,0.5]];portConstraint=eastwest;" vertex="1" parent="8ySV3ovpZ6cW9YgAnO75-55">
          <mxGeometry y="78" width="140" height="26" as="geometry" />
        </mxCell>
        <mxCell id="8ySV3ovpZ6cW9YgAnO75-59" value="Departure time" style="text;strokeColor=none;fillColor=none;align=left;verticalAlign=top;spacingLeft=4;spacingRight=4;overflow=hidden;rotatable=0;points=[[0,0.5],[1,0.5]];portConstraint=eastwest;" vertex="1" parent="8ySV3ovpZ6cW9YgAnO75-55">
          <mxGeometry y="104" width="140" height="26" as="geometry" />
        </mxCell>
        <mxCell id="8ySV3ovpZ6cW9YgAnO75-60" value="Arrival time" style="text;strokeColor=none;fillColor=none;align=left;verticalAlign=top;spacingLeft=4;spacingRight=4;overflow=hidden;rotatable=0;points=[[0,0.5],[1,0.5]];portConstraint=eastwest;" vertex="1" parent="8ySV3ovpZ6cW9YgAnO75-55">
          <mxGeometry y="130" width="140" height="26" as="geometry" />
        </mxCell>
        <mxCell id="8ySV3ovpZ6cW9YgAnO75-63" style="edgeStyle=orthogonalEdgeStyle;rounded=0;orthogonalLoop=1;jettySize=auto;html=1;exitX=0;exitY=0.5;exitDx=0;exitDy=0;entryX=1;entryY=0.5;entryDx=0;entryDy=0;" edge="1" parent="1" source="8ySV3ovpZ6cW9YgAnO75-4" target="8ySV3ovpZ6cW9YgAnO75-27">
          <mxGeometry relative="1" as="geometry" />
        </mxCell>
        <mxCell id="8ySV3ovpZ6cW9YgAnO75-64" style="edgeStyle=orthogonalEdgeStyle;rounded=0;orthogonalLoop=1;jettySize=auto;html=1;exitX=1;exitY=0.5;exitDx=0;exitDy=0;entryX=0;entryY=0.5;entryDx=0;entryDy=0;" edge="1" parent="1" source="8ySV3ovpZ6cW9YgAnO75-56" target="8ySV3ovpZ6cW9YgAnO75-28">
          <mxGeometry relative="1" as="geometry" />
        </mxCell>
        <mxCell id="8ySV3ovpZ6cW9YgAnO75-65" style="edgeStyle=orthogonalEdgeStyle;rounded=0;orthogonalLoop=1;jettySize=auto;html=1;exitX=0;exitY=0.5;exitDx=0;exitDy=0;entryX=1;entryY=0.5;entryDx=0;entryDy=0;" edge="1" parent="1" source="8ySV3ovpZ6cW9YgAnO75-53" target="8ySV3ovpZ6cW9YgAnO75-29">
          <mxGeometry relative="1" as="geometry" />
        </mxCell>
        <mxCell id="8ySV3ovpZ6cW9YgAnO75-67" style="edgeStyle=orthogonalEdgeStyle;rounded=0;orthogonalLoop=1;jettySize=auto;html=1;exitX=0;exitY=0.5;exitDx=0;exitDy=0;entryX=1;entryY=0.5;entryDx=0;entryDy=0;" edge="1" parent="1" source="8ySV3ovpZ6cW9YgAnO75-8" target="8ySV3ovpZ6cW9YgAnO75-30">
          <mxGeometry relative="1" as="geometry" />
        </mxCell>
        <mxCell id="8ySV3ovpZ6cW9YgAnO75-68" style="edgeStyle=orthogonalEdgeStyle;rounded=0;orthogonalLoop=1;jettySize=auto;html=1;exitX=0;exitY=0.5;exitDx=0;exitDy=0;entryX=1;entryY=0.5;entryDx=0;entryDy=0;" edge="1" parent="1" source="8ySV3ovpZ6cW9YgAnO75-8" target="8ySV3ovpZ6cW9YgAnO75-31">
          <mxGeometry relative="1" as="geometry" />
        </mxCell>
        <mxCell id="8ySV3ovpZ6cW9YgAnO75-69" style="edgeStyle=orthogonalEdgeStyle;rounded=0;orthogonalLoop=1;jettySize=auto;html=1;exitX=1;exitY=0.5;exitDx=0;exitDy=0;entryX=0;entryY=0.5;entryDx=0;entryDy=0;" edge="1" parent="1" source="8ySV3ovpZ6cW9YgAnO75-59" target="8ySV3ovpZ6cW9YgAnO75-32">
          <mxGeometry relative="1" as="geometry" />
        </mxCell>
        <mxCell id="8ySV3ovpZ6cW9YgAnO75-70" style="edgeStyle=orthogonalEdgeStyle;rounded=0;orthogonalLoop=1;jettySize=auto;html=1;exitX=1;exitY=0.5;exitDx=0;exitDy=0;entryX=0;entryY=0.5;entryDx=0;entryDy=0;" edge="1" parent="1" source="8ySV3ovpZ6cW9YgAnO75-60" target="8ySV3ovpZ6cW9YgAnO75-35">
          <mxGeometry relative="1" as="geometry" />
        </mxCell>
        <mxCell id="8ySV3ovpZ6cW9YgAnO75-75" style="edgeStyle=orthogonalEdgeStyle;rounded=0;orthogonalLoop=1;jettySize=auto;html=1;exitX=1;exitY=0.5;exitDx=0;exitDy=0;entryX=0;entryY=0.5;entryDx=0;entryDy=0;" edge="1" parent="1" source="8ySV3ovpZ6cW9YgAnO75-21" target="8ySV3ovpZ6cW9YgAnO75-74">
          <mxGeometry relative="1" as="geometry" />
        </mxCell>
        <mxCell id="8ySV3ovpZ6cW9YgAnO75-76" style="edgeStyle=orthogonalEdgeStyle;rounded=0;orthogonalLoop=1;jettySize=auto;html=1;exitX=1;exitY=0.5;exitDx=0;exitDy=0;entryX=0;entryY=0.5;entryDx=0;entryDy=0;" edge="1" parent="1" source="8ySV3ovpZ6cW9YgAnO75-22" target="8ySV3ovpZ6cW9YgAnO75-73">
          <mxGeometry relative="1" as="geometry" />
        </mxCell>
        <mxCell id="8ySV3ovpZ6cW9YgAnO75-77" style="edgeStyle=orthogonalEdgeStyle;rounded=0;orthogonalLoop=1;jettySize=auto;html=1;exitX=1;exitY=0.5;exitDx=0;exitDy=0;entryX=0;entryY=0.5;entryDx=0;entryDy=0;" edge="1" parent="1" source="8ySV3ovpZ6cW9YgAnO75-23" target="8ySV3ovpZ6cW9YgAnO75-72">
          <mxGeometry relative="1" as="geometry" />
        </mxCell>
        <mxCell id="8ySV3ovpZ6cW9YgAnO75-78" style="edgeStyle=orthogonalEdgeStyle;rounded=0;orthogonalLoop=1;jettySize=auto;html=1;exitX=1;exitY=0.5;exitDx=0;exitDy=0;entryX=0;entryY=0.5;entryDx=0;entryDy=0;" edge="1" parent="1" source="8ySV3ovpZ6cW9YgAnO75-26" target="8ySV3ovpZ6cW9YgAnO75-71">
          <mxGeometry relative="1" as="geometry" />
        </mxCell>
        <mxCell id="8ySV3ovpZ6cW9YgAnO75-83" style="edgeStyle=orthogonalEdgeStyle;rounded=0;orthogonalLoop=1;jettySize=auto;html=1;exitX=1;exitY=0.25;exitDx=0;exitDy=0;" edge="1" parent="1" source="8ySV3ovpZ6cW9YgAnO75-79" target="8ySV3ovpZ6cW9YgAnO75-33">
          <mxGeometry relative="1" as="geometry" />
        </mxCell>
        <mxCell id="8ySV3ovpZ6cW9YgAnO75-84" style="edgeStyle=orthogonalEdgeStyle;rounded=0;orthogonalLoop=1;jettySize=auto;html=1;exitX=1;exitY=0.25;exitDx=0;exitDy=0;" edge="1" parent="1" source="8ySV3ovpZ6cW9YgAnO75-79" target="8ySV3ovpZ6cW9YgAnO75-36">
          <mxGeometry relative="1" as="geometry" />
        </mxCell>
        <mxCell id="8ySV3ovpZ6cW9YgAnO75-79" value="Dim_Time" style="swimlane;fontStyle=0;childLayout=stackLayout;horizontal=1;startSize=26;horizontalStack=0;resizeParent=1;resizeParentMax=0;resizeLast=0;collapsible=1;marginBottom=0;" vertex="1" parent="1">
          <mxGeometry x="80" y="440" width="140" height="104" as="geometry" />
        </mxCell>
        <mxCell id="8ySV3ovpZ6cW9YgAnO75-80" value="EET" style="text;strokeColor=none;fillColor=none;align=left;verticalAlign=top;spacingLeft=4;spacingRight=4;overflow=hidden;rotatable=0;points=[[0,0.5],[1,0.5]];portConstraint=eastwest;" vertex="1" parent="8ySV3ovpZ6cW9YgAnO75-79">
          <mxGeometry y="26" width="140" height="26" as="geometry" />
        </mxCell>
        <mxCell id="8ySV3ovpZ6cW9YgAnO75-81" value="PST" style="text;strokeColor=none;fillColor=none;align=left;verticalAlign=top;spacingLeft=4;spacingRight=4;overflow=hidden;rotatable=0;points=[[0,0.5],[1,0.5]];portConstraint=eastwest;" vertex="1" parent="8ySV3ovpZ6cW9YgAnO75-79">
          <mxGeometry y="52" width="140" height="26" as="geometry" />
        </mxCell>
        <mxCell id="8ySV3ovpZ6cW9YgAnO75-82" value="AST" style="text;strokeColor=none;fillColor=none;align=left;verticalAlign=top;spacingLeft=4;spacingRight=4;overflow=hidden;rotatable=0;points=[[0,0.5],[1,0.5]];portConstraint=eastwest;" vertex="1" parent="8ySV3ovpZ6cW9YgAnO75-79">
          <mxGeometry y="78" width="140" height="26" as="geometry" />
        </mxCell>
      </root>
    </mxGraphModel>
  </diagram>
</mxfile>
